<?xml version="1.0" encoding="utf-8" ?>
<svg baseProfile="tiny" height="100%" version="1.2" width="100%" xmlns="http://www.w3.org/2000/svg" xmlns:ev="http://www.w3.org/2001/xml-events" xmlns:xlink="http://www.w3.org/1999/xlink"><defs /><circle cx="1191.05" cy="371.882" r="43.3166" /><circle cx="1083.87" cy="424.409" r="24.1819" /><circle cx="1176.44" cy="502.073" r="49.9199" /><circle cx="1201.55" cy="616.682" r="46.6036" /><circle cx="1299.23" cy="668.763" r="28.4392" /><circle cx="1199.38" cy="756.801" r="23.1755" /><circle cx="1087.34" cy="704.685" r="18.1919" /><circle cx="979.914" cy="786.262" r="15.6515" /><circle cx="1081.96" cy="869.045" r="22.8578" /><circle cx="1154.59" cy="985.774" r="28.4067" /><circle cx="1233.84" cy="887.838" r="32.4338" /><circle cx="1278.55" cy="976.383" r="51.6103" /><circle cx="1245.55" cy="1085.51" r="40.5465" /><circle cx="1332.91" cy="1061.7" r="44.1078" /><circle cx="1395.7" cy="995.514" r="43.7188" /><circle cx="1357.51" cy="903.989" r="51.4031" /><circle cx="1350.49" cy="806.574" r="38.9051" /><circle cx="1410.55" cy="719.492" r="27.2088" /><circle cx="1524.49" cy="765.931" r="13.4727" /><circle cx="1482.03" cy="852.494" r="25.1374" /><circle cx="1488.78" cy="948.076" r="37.7698" /><circle cx="1494.69" cy="1048.93" r="32.129" /><circle cx="1419.51" cy="1112.62" r="46.647" /><circle cx="1314.25" cy="1160.05" r="48.511" /><circle cx="1332.71" cy="1256.36" r="26.6355" /><circle cx="1423.81" cy="1324.79" r="23.6413" /><circle cx="1602.23" cy="1262.14" r="12.007" /><circle cx="1800.15" cy="1244.47" r="18.4243" /><circle cx="1811.04" cy="1550.34" r="29.2439" /><circle cx="1661.35" cy="1596.97" r="15.7383" /><circle cx="1580.87" cy="1460.8" r="13.6998" /><circle cx="1492.1" cy="1586.78" r="14.6243" /><circle cx="1243.53" cy="1545.88" r="4.332" /><circle cx="1036.45" cy="1566.55" r="9.6256" /><circle cx="846.615" cy="1609.45" r="23.5454" /><circle cx="734.027" cy="1603.1" r="27.6276" /><circle cx="718.268" cy="1503.3" r="31.369" /><circle cx="617.333" cy="1458.21" r="29.3793" /><circle cx="563.962" cy="1588.88" r="16.65" /><circle cx="421.292" cy="1602.95" r="15.1878" /><circle cx="273.11" cy="1599.87" r="16.3544" /><circle cx="118.119" cy="1597.57" r="6.5975" /><circle cx="201.905" cy="1466.76" r="5.6003" /><circle cx="416.021" cy="1476.96" r="8.3369" /><circle cx="584.628" cy="1353.06" r="17.0256" /><circle cx="673.677" cy="1259.71" r="36.6068" /><circle cx="712.716" cy="1165.36" r="27.1103" /><circle cx="830.36" cy="1176.97" r="38.2268" /><circle cx="944.768" cy="1158.53" r="38.7831" /><circle cx="1048.84" cy="1159.27" r="43.9898" /><circle cx="1026.27" cy="1264.74" r="36.7177" /><circle cx="901.068" cy="1283.6" r="32.549" /><circle cx="770.894" cy="1285.72" r="38.8197" /><circle cx="707.955" cy="1371.58" r="33.63" /><circle cx="810.352" cy="1389.14" r="42.6032" /><circle cx="858.856" cy="1473.42" r="36.9538" /><circle cx="954.539" cy="1396.95" r="37.1227" /><circle cx="1064.45" cy="1406.45" r="37.4939" /><circle cx="1170.3" cy="1336.8" r="22.2173" /><circle cx="1163.73" cy="1202.47" r="27.7623" /><circle cx="1118.93" cy="1087.99" r="32.9009" /><circle cx="1012.69" cy="1030.65" r="27.1974" /><circle cx="933.502" cy="926.074" r="21.154" /><circle cx="803.45" cy="947.876" r="34.5061" /><circle cx="855.04" cy="1041.87" r="22.859" /><circle cx="727.404" cy="1046.63" r="28.0841" /><circle cx="681.066" cy="945.384" r="50.0399" /><circle cx="630.338" cy="820.054" r="17.148" /><circle cx="735.89" cy="836.173" r="29.2338" /><circle cx="846.018" cy="795.08" r="16.4982" /><circle cx="715.268" cy="687.795" r="23.6437" /><circle cx="617.485" cy="661.058" r="46.9617" /><circle cx="584.949" cy="554.174" r="18.2295" /><circle cx="692.419" cy="567.011" r="25.0722" /><circle cx="832.992" cy="561.45" r="33.3028" /><circle cx="899.598" cy="638.86" r="37.4414" /><circle cx="1000.19" cy="576.941" r="26.7958" /><circle cx="919.481" cy="429.765" r="11.052" /><circle cx="760.454" cy="416.367" r="15.72" /><circle cx="611.903" cy="423.393" r="18.3763" /><circle cx="461.356" cy="337.709" r="15.2307" /><circle cx="318.141" cy="363.857" r="12.745" /><circle cx="140.063" cy="387.448" r="5.8446" /><circle cx="413.06" cy="97.6368" r="9.214" /><circle cx="749.865" cy="47.1799" r="12.3155" /><circle cx="715.808" cy="191.23" r="30.7117" /><circle cx="669.802" cy="290.969" r="32.9957" /><circle cx="822.806" cy="246.019" r="36.0693" /><circle cx="914.106" cy="170.079" r="24.092" /><circle cx="984.784" cy="253.962" r="34.1668" /><circle cx="1062.45" cy="160.587" r="10.1375" /><circle cx="1101.01" cy="293.532" r="34.1403" /><circle cx="1205.69" cy="237.684" r="11.8222" /><circle cx="1318.95" cy="334.175" r="25.9271" /><circle cx="1506.94" cy="253.52" r="4.4225" /><circle cx="1754.54" cy="224.605" r="3.673" /><circle cx="1381.94" cy="457.46" r="28.3058" /><circle cx="1399.76" cy="579.912" r="42.1939" /><circle cx="1293.81" cy="547.904" r="42.6697" /><circle cx="1271.95" cy="443.746" r="41.5293" /><path d="M 1191.05,371.882  L 1083.87,424.409  L 1176.44,502.073  L 1201.55,616.682  L 1299.23,668.763  L 1199.38,756.801  L 1087.34,704.685  L 979.914,786.262  L 1081.96,869.045  L 1154.59,985.774  L 1233.84,887.838  L 1278.55,976.383  L 1245.55,1085.51  L 1332.91,1061.7  L 1395.7,995.514  L 1357.51,903.989  L 1350.49,806.574  L 1410.55,719.492  L 1524.49,765.931  L 1482.03,852.494  L 1488.78,948.076  L 1494.69,1048.93  L 1419.51,1112.62  L 1314.25,1160.05  L 1332.71,1256.36  L 1423.81,1324.79  L 1602.23,1262.14  L 1800.15,1244.47  L 1811.04,1550.34  L 1661.35,1596.97  L 1580.87,1460.8  L 1492.1,1586.78  L 1243.53,1545.88  L 1036.45,1566.55  L 846.615,1609.45  L 734.027,1603.1  L 718.268,1503.3  L 617.333,1458.21  L 563.962,1588.88  L 421.292,1602.95  L 273.11,1599.87  L 118.119,1597.57  L 201.905,1466.76  L 416.021,1476.96  L 584.628,1353.06  L 673.677,1259.71  L 712.716,1165.36  L 830.36,1176.97  L 944.768,1158.53  L 1048.84,1159.27  L 1026.27,1264.74  L 901.068,1283.6  L 770.894,1285.72  L 707.955,1371.58  L 810.352,1389.14  L 858.856,1473.42  L 954.539,1396.95  L 1064.45,1406.45  L 1170.3,1336.8  L 1163.73,1202.47  L 1118.93,1087.99  L 1012.69,1030.65  L 933.502,926.074  L 803.45,947.876  L 855.04,1041.87  L 727.404,1046.63  L 681.066,945.384  L 630.338,820.054  L 735.89,836.173  L 846.018,795.08  L 715.268,687.795  L 617.485,661.058  L 584.949,554.174  L 692.419,567.011  L 832.992,561.45  L 899.598,638.86  L 1000.19,576.941  L 919.481,429.765  L 760.454,416.367  L 611.903,423.393  L 461.356,337.709  L 318.141,363.857  L 140.063,387.448  L 413.06,97.6368  L 749.865,47.1799  L 715.808,191.23  L 669.802,290.969  L 822.806,246.019  L 914.106,170.079  L 984.784,253.962  L 1062.45,160.587  L 1101.01,293.532  L 1205.69,237.684  L 1318.95,334.175  L 1506.94,253.52  L 1754.54,224.605  L 1381.94,457.46  L 1399.76,579.912  L 1293.81,547.904  L 1271.95,443.746  z" fill="none" stroke="red" stroke-width="2px" /></svg>